<?xml version="1.0" encoding="UTF-8" standalone="no"?>
<!DOCTYPE svg PUBLIC "-//W3C//DTD SVG 1.1//EN" "http://www.w3.org/Graphics/SVG/1.1/DTD/svg11.dtd">
<svg version="1.1" xmlns="http://www.w3.org/2000/svg" xmlns:xlink="http://www.w3.org/1999/xlink" preserveAspectRatio="xMidYMid meet" viewBox="0 0 50 24" width="50" height="24"><defs><path d="M42.66 12.02L11.78 12.02" id="a12atmxmI9"></path><path d="M25.1 12.16C25.1 17.06 21.04 21.04 16.04 21.04C11.03 21.04 6.97 17.06 6.97 12.16C6.97 7.26 11.03 3.29 16.04 3.29C21.04 3.29 25.1 7.26 25.1 12.16Z" id="aT5fmwPs"></path></defs><g><g><g><g><use xlink:href="#a12atmxmI9" opacity="1" fill-opacity="0" stroke="#0b1321" stroke-width="1" stroke-opacity="1"></use></g></g><g><g><filter id="shadow4397185" x="-0.03" y="-3.71" width="32.13" height="31.75" filterUnits="userSpaceOnUse" primitiveUnits="userSpaceOnUse"><feFlood></feFlood><feComposite in2="SourceAlpha" operator="in"></feComposite><feGaussianBlur stdDeviation="1"></feGaussianBlur><feOffset dx="0" dy="0" result="afterOffset"></feOffset><feFlood flood-color="#000000" flood-opacity="0.5"></feFlood><feComposite in2="afterOffset" operator="in"></feComposite><feMorphology operator="dilate" radius="0"></feMorphology><feComposite in2="SourceAlpha" operator="out"></feComposite></filter><path d="M25.1 12.16C25.1 17.06 21.04 21.04 16.04 21.04C11.03 21.04 6.97 17.06 6.97 12.16C6.97 7.26 11.03 3.29 16.04 3.29C21.04 3.29 25.1 7.26 25.1 12.16Z" id="c3AoUGlDho" fill="white" fill-opacity="1" filter="url(#shadow4397185)"></path></g><use xlink:href="#aT5fmwPs" opacity="1" fill="#282d41" fill-opacity="1"></use></g></g></g></svg>