<?xml version="1.0" encoding="UTF-8" standalone="no"?>
<!DOCTYPE svg PUBLIC "-//W3C//DTD SVG 1.1//EN" "http://www.w3.org/Graphics/SVG/1.1/DTD/svg11.dtd">
<svg version="1.1" xmlns="http://www.w3.org/2000/svg" xmlns:xlink="http://www.w3.org/1999/xlink" preserveAspectRatio="xMidYMid meet" viewBox="0 0 50 24" width="50" height="24"><defs><path d="M42.66 12.02L11.78 12.02" id="c1HLzL2w0"></path><path d="M43.13 11.87C43.13 16.77 39.06 20.75 34.06 20.75C29.06 20.75 25 16.77 25 11.87C25 6.98 29.06 3 34.06 3C39.06 3 43.13 6.98 43.13 11.87Z" id="a1LKAP5CP"></path></defs><g><g><g><g><use xlink:href="#c1HLzL2w0" opacity="1" fill-opacity="0" stroke="#3cc850" stroke-width="1" stroke-opacity="1"></use></g></g><g><g><filter id="shadow7097681" x="18" y="-4" width="32.13" height="31.75" filterUnits="userSpaceOnUse" primitiveUnits="userSpaceOnUse"><feFlood></feFlood><feComposite in2="SourceAlpha" operator="in"></feComposite><feGaussianBlur stdDeviation="1"></feGaussianBlur><feOffset dx="0" dy="0" result="afterOffset"></feOffset><feFlood flood-color="#000000" flood-opacity="0.5"></feFlood><feComposite in2="afterOffset" operator="in"></feComposite><feMorphology operator="dilate" radius="0"></feMorphology><feComposite in2="SourceAlpha" operator="out"></feComposite></filter><path d="M43.13 11.87C43.13 16.77 39.06 20.75 34.06 20.75C29.06 20.75 25 16.77 25 11.87C25 6.98 29.06 3 34.06 3C39.06 3 43.13 6.98 43.13 11.87Z" id="b14GtlXlyi" fill="white" fill-opacity="1" filter="url(#shadow7097681)"></path></g><use xlink:href="#a1LKAP5CP" opacity="1" fill="#dcdcdc" fill-opacity="1"></use></g></g></g></svg>